<svg xmlns="http://www.w3.org/2000/svg" width="2443.992" height="2480.974" viewBox="0 0 2443.992 2480.974">
  <g id="TEXT" transform="translate(-3298.004 -259.513)">
    <g id="Grupo_4" data-name="Grupo 4">
      <path id="Trazado_1" data-name="Trazado 1" d="M3300.5,262.013V989.89c0,708.171,459.86,1367.36,1219.493,1748.1H4520C5279.642,2357.25,5739.5,1698.061,5739.5,989.89V262.013Z" fill="#fff" stroke="#000" stroke-miterlimit="10" stroke-width="5"/>
      <path id="Trazado_2" data-name="Trazado 2" d="M3387,349.821v676.25c0,657.942,427.244,1270.376,1133,1624.108h0c705.76-353.732,1133-966.166,1133-1624.108V349.821Z"/>
      <rect id="Rectángulo_7" data-name="Rectángulo 7" width="2266" height="695" transform="translate(3387 350)" fill="#ff0c0b"/>
      <g id="Grupo_1" data-name="Grupo 1">
        <path id="Trazado_3" data-name="Trazado 3" d="M3903.712,1167.674H3557.681v292.321s74.841,348.673,365.4,454.331V1412.449h-162.89V1513.7h54.591v193.707s-144.4-127.671-157.607-247.417v-199.87h246.536Z" fill="#fff"/>
        <path id="Trazado_4" data-name="Trazado 4" d="M3972.39,1585.9h272.07V1248.679h-95.093V1504.02h-81.885V1248.679H3972.39" fill="#fff"/>
        <path id="Trazado_5" data-name="Trazado 5" d="M4465.9,1457.794l81.885-66.036-147.921-142.639H4293.327l.44,336.786h82.766v-64.276l30.376-30.376,62.515,95.092h85.407Zm-56.791-46.534-33.019,19.063v-76.25l33.019,19.062,33.018,19.063Z" fill="#fff"/>
        <path id="Trazado_6" data-name="Trazado 6" d="M4597.535,1248.679h94.212V1392.2l88.929-143.519h96.854l-118.866,168.173L4881.051,1585.9H4769.229l-77.483-103.9v103.9h-94.212Z" fill="#fff"/>
        <path id="Trazado_7" data-name="Trazado 7" d="M5054.507,1261.005h-112.7l-132.073,155.846,132.073,169.054,58.992-48.427-42.263-47.546h95.973l-37.861,46.666,55.471,49.307L5190.1,1416.851Zm-124.985,156.287,42.66-68.6,53.709-.079,42.263,68.678Z" fill="#fff"/>
        <path id="Trazado_8" data-name="Trazado 8" d="M5473.618,1167.674H5043.941l197.229,249.177,126.35-.44h0a569.187,569.187,0,0,1-53.234,240.318c-18.334,39.362-34.439,51.811-34.815,50.683-.88-2.642,0-165.972,0-165.972H5187.9v354.333a18.449,18.449,0,0,0,25.622,17.03c27.081-11.574,81.5-52.12,177.77-186.461,131.388-183.342,81.885-379.489,81.885-379.489H5305l-64.275-79.244h233.329Z" fill="#fff"/>
      </g>
      <path id="Trazado_9" data-name="Trazado 9" d="M4805.5,1812.97l-229.435,132.464L4708.529,1716H4331.471l132.464,229.435L4234.5,1812.97V2190.03l229.435-132.464L4331.471,2287h377.059l-132.464-229.435L4805.5,2190.03Z" fill="#ff0c0b" stroke="#fff" stroke-miterlimit="10" stroke-width="17"/>
      <g id="Grupo_2" data-name="Grupo 2">
        <path id="Rectángulo_8" data-name="Rectángulo 8" d="M0,0H1665.5a0,0,0,0,1,0,0V0a66.033,66.033,0,0,1-66.033,66.033H66.033A66.033,66.033,0,0,1,0,0V0A0,0,0,0,1,0,0Z" transform="translate(3687.25 583.684)" stroke="#fff" stroke-miterlimit="10" stroke-width="15"/>
        <path id="Rectángulo_9" data-name="Rectángulo 9" d="M0,0H1550.2a0,0,0,0,1,0,0V0a66.033,66.033,0,0,1-66.033,66.033H66.033A66.033,66.033,0,0,1,0,0V0A0,0,0,0,1,0,0Z" transform="translate(3744.898 663.343)" stroke="#fff" stroke-miterlimit="10" stroke-width="15"/>
        <path id="Rectángulo_10" data-name="Rectángulo 10" d="M0,0H1390.886a0,0,0,0,1,0,0V0a66.033,66.033,0,0,1-66.033,66.033H66.033A66.033,66.033,0,0,1,0,0V0A0,0,0,0,1,0,0Z" transform="translate(3824.557 743.002)" stroke="#fff" stroke-miterlimit="10" stroke-width="15"/>
        <path id="Trazado_10" data-name="Trazado 10" d="M4520,442.933s21.467,25.661,103.6,36.116,127.868-19.009,127.868-19.009,42,132.108-13.067,262.316C4689.237,838.608,4562,885.827,4520,949.786c-42-63.959-169.237-111.178-218.4-227.43-55.067-130.208-13.067-262.316-13.067-262.316s45.735,29.463,127.869,19.009S4520,442.933,4520,442.933Z" fill="#fff"/>
        <path id="Trazado_11" data-name="Trazado 11" d="M4520,482.172s18.143,21.688,87.56,30.524,108.069-16.065,108.069-16.065,35.5,111.653-11.043,221.7C4663.033,816.583,4555.5,856.491,4520,910.547c-35.5-54.056-143.033-93.964-184.586-192.216-46.541-110.047-11.043-221.7-11.043-221.7s38.653,24.9,108.069,16.065S4520,482.172,4520,482.172Z" fill="#fff" stroke="#ff0c0b" stroke-miterlimit="10" stroke-width="5"/>
      </g>
      <g id="Grupo_3" data-name="Grupo 3">
        <path id="Trazado_12" data-name="Trazado 12" d="M4524.24,757.79a92.094,92.094,0,0,0,19.84-1.92,97.07,97.07,0,0,0,16.32-5.12V715.39h-23.04q-5.123,0-8-2.721a9.053,9.053,0,0,1-2.88-6.879V676.03h82.88v98.4a121.947,121.947,0,0,1-18.639,11.279,120.238,120.238,0,0,1-20.641,7.761,153.717,153.717,0,0,1-23.359,4.48,231.5,231.5,0,0,1-26.641,1.44,122.207,122.207,0,0,1-47.359-9.04,113.365,113.365,0,0,1-62.641-62.721,122.81,122.81,0,0,1-9.04-47.44q0-26.076,8.641-47.919a107.922,107.922,0,0,1,24.719-37.681,112.173,112.173,0,0,1,38.88-24.639q22.8-8.8,50.96-8.8a148.47,148.47,0,0,1,27.361,2.4,134.668,134.668,0,0,1,23.6,6.559,108.782,108.782,0,0,1,19.76,9.921,106.462,106.462,0,0,1,16,12.48l-15.68,23.84a17.427,17.427,0,0,1-5.36,5.279,12.725,12.725,0,0,1-6.8,1.921,18.721,18.721,0,0,1-9.92-3.2q-6.4-3.84-12.08-6.641a74.347,74.347,0,0,0-11.6-4.56,76.486,76.486,0,0,0-12.481-2.56,122.759,122.759,0,0,0-14.72-.8,67.164,67.164,0,0,0-27.36,5.359,58.7,58.7,0,0,0-20.72,15.121,68.37,68.37,0,0,0-13.2,23.439,94.441,94.441,0,0,0-4.64,30.48q0,18.563,5.121,32.96a70.745,70.745,0,0,0,14.16,24.321,60.048,60.048,0,0,0,21.439,15.119A69.4,69.4,0,0,0,4524.24,757.79Z" fill="#ff0c0b"/>
      </g>
    </g>
  </g>
</svg>
